<svg xmlns="http://www.w3.org/2000/svg" viewBox="0 0 1200 760"><defs><linearGradient id="g" x1="0" y1="0" x2="0" y2="1"><stop stop-color="#10b8db"/><stop offset="1" stop-color="#f0bd75"/></linearGradient></defs><rect width="1200" height="760" fill="url(#g)"/><circle cx="930" cy="130" r="80" fill="#ffdf8a"/><path d="M0 420 C220 360 390 390 560 340 C820 270 1010 320 1200 250 L1200 760 L0 760Z" fill="#0e8aa0"/><path d="M0 590 C300 520 650 550 1200 500 L1200 760 L0 760Z" fill="#e7bf7c"/><path d="M220 630 c30-180 75-250 130-310" stroke="#7b4d2a" stroke-width="18" fill="none"/><path d="M350 320 c-90 30-150 20-230-50 M350 320 c-70-50-110-90-120-160 M350 320 c80-40 160-45 240-25 M350 320 c70-70 110-110 120-180" stroke="#167946" stroke-width="22" fill="none" stroke-linecap="round"/></svg>