<svg xmlns="http://www.w3.org/2000/svg" viewBox="0 0 1200 780"><defs><linearGradient id="g" x1="0" x2="1" y1="0" y2="1"><stop offset="0" stop-color="#06234a"/><stop offset=".55" stop-color="#00b8d9"/><stop offset="1" stop-color="#fbbf24"/></linearGradient><radialGradient id="sun" cx="75%" cy="24%" r="18%"><stop offset="0" stop-color="#fff2b8"/><stop offset="1" stop-color="transparent"/></radialGradient></defs><rect width="1200" height="780" fill="url(#g)"/><rect width="1200" height="780" fill="url(#sun)" opacity=".75"/><path d="M0 545 C180 500 300 575 470 528 C620 488 720 500 860 470 C1010 438 1120 472 1200 440 L1200 780 L0 780 Z" fill="#061726" opacity=".78"/><path d="M0 610 C260 560 415 622 650 590 C890 558 1030 585 1200 535 L1200 780 L0 780 Z" fill="#0a2a34" opacity=".85"/><path d="M80 705 C230 660 360 668 520 704 C690 742 845 738 1040 690 C1110 674 1160 678 1200 690 L1200 780 L0 780 L0 730 C25 722 52 714 80 705Z" fill="#f7d590" opacity=".82"/><path d="M0 705 C190 675 360 690 530 714 C760 746 950 736 1200 690 L1200 780 L0 780 Z" fill="#21c7c7" opacity=".40"/><g opacity=".33"><circle cx="170" cy="145" r="2" fill="white"/><circle cx="260" cy="95" r="1.8" fill="white"/><circle cx="1020" cy="155" r="1.5" fill="white"/><circle cx="900" cy="92" r="2" fill="white"/></g></svg>